<?xml version="1.0" encoding="UTF-8"?>
<!DOCTYPE svg PUBLIC "-//W3C//DTD SVG 1.1//EN" "http://www.w3.org/Graphics/SVG/1.1/DTD/svg11.dtd">
<svg xmlns="http://www.w3.org/2000/svg" version="1.1" width="256px" height="256px" style="shape-rendering:geometricPrecision; text-rendering:geometricPrecision; image-rendering:optimizeQuality; fill-rule:evenodd; clip-rule:evenodd" xmlns:xlink="http://www.w3.org/1999/xlink">
<g><path style="opacity:0.953" fill="#cbc2f4" d="M 64.5,5.5 C 75.2519,5.66801 78.4186,10.668 74,20.5C 71.2066,25.2944 67.2066,28.6277 62,30.5C 56.2024,30.203 53.3691,27.203 53.5,21.5C 54.7869,14.5438 58.4536,9.2105 64.5,5.5 Z"/></g>
<g><path style="opacity:0.992" fill="#cbc2f4" d="M 155.5,25.5 C 135.639,28.1957 122.806,39.1957 117,58.5C 114.972,65.694 114.139,73.0274 114.5,80.5C 113.261,90.311 112.594,100.311 112.5,110.5C 115.518,141.137 106.852,167.804 86.5,190.5C 81.0409,184.603 74.3743,182.436 66.5,184C 61.4076,187.017 59.0743,191.517 59.5,197.5C 59.676,203.196 61.176,208.529 64,213.5C 68.1472,217.978 72.6472,222.145 77.5,226C 87.342,227.041 96.0087,224.375 103.5,218C 108.435,213.068 112.601,207.568 116,201.5C 121.059,189.657 125.726,177.657 130,165.5C 132.706,158.578 136.54,152.411 141.5,147C 147.415,145.894 150.915,148.394 152,154.5C 152.5,164.494 152.666,174.494 152.5,184.5C 146.616,185.881 142.783,189.547 141,195.5C 138.891,207.079 139.891,218.412 144,229.5C 146.372,231.703 148.539,234.037 150.5,236.5C 139.364,243.128 128.198,243.128 117,236.5C 104.68,246.392 91.8464,247.059 78.5,238.5C 52.6501,241.816 40.4834,230.483 42,204.5C 44.5577,197.718 47.3911,191.051 50.5,184.5C 29.6005,176.322 23.1005,161.655 31,140.5C 34.539,133.25 38.7057,126.417 43.5,120C 31.9488,108.251 29.4488,94.7507 36,79.5C 40.6671,73.3364 45.5004,67.3364 50.5,61.5C 54.694,64.7654 59.3606,67.2654 64.5,69C 71.3503,69.3049 78.1836,69.8049 85,70.5C 86.1667,70.1667 87.3333,69.8333 88.5,69.5C 86.8509,67.3501 85.0176,65.3501 83,63.5C 82.3333,61.1667 82.3333,58.8333 83,56.5C 86.4989,52.3283 89.1656,47.6616 91,42.5C 91.6908,38.9787 91.1908,35.6454 89.5,32.5C 93.499,32.9321 97.3324,33.9321 101,35.5C 106.921,31.456 112.755,27.2894 118.5,23C 131.433,16.3845 143.766,17.2179 155.5,25.5 Z"/></g>
<g><path style="opacity:0.984" fill="#161014" d="M 155.5,25.5 C 161.167,25.5 166.833,25.5 172.5,25.5C 195.969,34.8869 207.969,52.3869 208.5,78C 207.713,87.3646 205.88,96.5313 203,105.5C 196.674,120.143 191.341,135.143 187,150.5C 182.387,173.853 177.887,197.186 173.5,220.5C 171.748,225.837 169.081,230.67 165.5,235C 160.739,237.72 155.739,238.22 150.5,236.5C 148.539,234.037 146.372,231.703 144,229.5C 139.891,218.412 138.891,207.079 141,195.5C 142.783,189.547 146.616,185.881 152.5,184.5C 152.666,174.494 152.5,164.494 152,154.5C 150.915,148.394 147.415,145.894 141.5,147C 136.54,152.411 132.706,158.578 130,165.5C 125.726,177.657 121.059,189.657 116,201.5C 112.601,207.568 108.435,213.068 103.5,218C 96.0087,224.375 87.342,227.041 77.5,226C 72.6472,222.145 68.1472,217.978 64,213.5C 61.176,208.529 59.676,203.196 59.5,197.5C 59.0743,191.517 61.4076,187.017 66.5,184C 74.3743,182.436 81.0409,184.603 86.5,190.5C 106.852,167.804 115.518,141.137 112.5,110.5C 114.158,100.717 114.825,90.7168 114.5,80.5C 114.139,73.0274 114.972,65.694 117,58.5C 122.806,39.1957 135.639,28.1957 155.5,25.5 Z"/></g>
<g><path style="opacity:0.987" fill="#cbc2f4" d="M 172.5,25.5 C 192.816,23.4751 205.816,32.1418 211.5,51.5C 234.543,58.253 243.043,73.253 237,96.5C 234.959,100.084 232.792,103.584 230.5,107C 243.024,118.284 245.857,131.784 239,147.5C 227.12,167.374 214.453,186.707 201,205.5C 194.513,215.328 185.347,220.328 173.5,220.5C 177.887,197.186 182.387,173.853 187,150.5C 191.341,135.143 196.674,120.143 203,105.5C 205.88,96.5313 207.713,87.3646 208.5,78C 207.969,52.3869 195.969,34.8869 172.5,25.5 Z"/></g>
<g><path style="opacity:0.891" fill="#100b0e" d="M 89.5,32.5 C 91.1908,35.6454 91.6908,38.9787 91,42.5C 89.1656,47.6616 86.4989,52.3283 83,56.5C 82.3333,58.8333 82.3333,61.1667 83,63.5C 85.0176,65.3501 86.8509,67.3501 88.5,69.5C 87.3333,69.8333 86.1667,70.1667 85,70.5C 78.1836,69.8049 71.3503,69.3049 64.5,69C 59.3606,67.2654 54.694,64.7654 50.5,61.5C 42.1785,52.7148 42.5118,44.2148 51.5,36C 55.9435,34.0597 60.6101,33.0597 65.5,33C 69.1464,26.8758 74.4797,24.8758 81.5,27C 84.7556,28.116 87.4223,29.9493 89.5,32.5 Z"/></g>
<g><path style="opacity:1" fill="#da679c" d="M 115.5,110.5 C 117.14,101.05 117.807,91.3838 117.5,81.5C 116.21,44.622 133.877,27.122 170.5,29C 186.47,33.6348 197.303,43.8014 203,59.5C 205.839,69.7543 206.172,80.0876 204,90.5C 197.35,110.476 190.683,130.476 184,150.5C 180.165,173.683 175.498,196.683 170,219.5C 168.434,225.487 165.267,230.32 160.5,234C 153.985,234.825 149.151,232.325 146,226.5C 142.969,217.734 141.969,208.734 143,199.5C 145.027,189.426 150.861,185.592 160.5,188C 162.049,189.214 163.215,190.714 164,192.5C 164.145,196.037 164.978,199.371 166.5,202.5C 169.232,192.283 165.566,185.95 155.5,183.5C 155.903,172.769 155.403,162.102 154,151.5C 148.8,141.569 142.467,140.903 135,149.5C 127.643,163.231 121.643,177.564 117,192.5C 112.384,204.771 104.551,214.271 93.5,221C 87.4717,224.265 81.4717,224.265 75.5,221C 65.1252,213.894 60.9585,204.061 63,191.5C 65.0768,186.879 68.5768,185.045 73.5,186C 79.1594,186.996 82.9927,190.162 85,195.5C 86.8461,198.569 87.8461,201.902 88,205.5C 88.414,205.957 88.914,206.291 89.5,206.5C 90.9775,202.181 90.3108,198.181 87.5,194.5C 98.1474,182.879 105.981,169.546 111,154.5C 112.726,148.963 113.726,143.296 114,137.5C 114.358,128.485 114.858,119.485 115.5,110.5 Z"/></g>
<g><path style="opacity:0.957" fill="#ccc3f4" d="M 220.5,29.5 C 231.86,28.71 235.193,33.5434 230.5,44C 219.964,47.997 215.464,44.497 217,33.5C 217.69,31.6498 218.856,30.3164 220.5,29.5 Z"/></g>
<g><path style="opacity:1" fill="#d8669a" d="M 72.5,29.5 C 79.0233,29.0545 84.1899,31.3878 88,36.5C 87.8527,43.8058 85.186,50.1391 80,55.5C 78.8485,59.8288 79.6819,63.6621 82.5,67C 69.7249,69.2691 58.8916,65.7691 50,56.5C 45.974,47.3331 48.474,40.8331 57.5,37C 61.0151,36.4807 64.3484,36.8141 67.5,38C 68.5346,34.7597 70.2012,31.9264 72.5,29.5 Z"/></g>
<g><path style="opacity:1" fill="#251c20" d="M 172.5,59.5 C 178.158,58.6794 179.825,60.846 177.5,66C 171.741,67.1387 170.074,64.972 172.5,59.5 Z"/></g>
<g><path style="opacity:1" fill="#21171b" d="M 133.5,60.5 C 138.993,59.178 141.493,61.178 141,66.5C 139.192,68.3959 137.025,68.8959 134.5,68C 133.565,65.6194 133.232,63.1194 133.5,60.5 Z"/></g>
<g><path style="opacity:1" fill="#eaeaea" d="M 173.5,61.5 C 174.5,61.5 175.5,61.5 176.5,61.5C 176.5,62.5 176.5,63.5 176.5,64.5C 175.5,64.5 174.5,64.5 173.5,64.5C 173.5,63.5 173.5,62.5 173.5,61.5 Z"/></g>
<g><path style="opacity:1" fill="#d9d8d9" d="M 135.5,62.5 C 136.5,62.5 137.5,62.5 138.5,62.5C 138.5,63.8333 138.5,65.1667 138.5,66.5C 137.5,66.5 136.5,66.5 135.5,66.5C 135.5,65.1667 135.5,63.8333 135.5,62.5 Z"/></g>
<g><path style="opacity:1" fill="#12080d" d="M 124.5,75.5 C 132.951,78.1102 141.451,78.1102 150,75.5C 158.883,79.3036 167.717,79.3036 176.5,75.5C 177.167,75.8333 177.833,76.1667 178.5,76.5C 176.446,78.1938 174.112,79.3605 171.5,80C 164.233,80.8711 157.066,80.3711 150,78.5C 141.846,80.7863 133.679,80.953 125.5,79C 124.663,77.9887 124.33,76.8221 124.5,75.5 Z"/></g>
<g><path style="opacity:1" fill="#484456" d="M 114.5,80.5 C 114.825,90.7168 114.158,100.717 112.5,110.5C 112.594,100.311 113.261,90.311 114.5,80.5 Z"/></g>
<g><path style="opacity:1" fill="#99486d" d="M 117.5,81.5 C 117.807,91.3838 117.14,101.05 115.5,110.5C 115.557,100.641 116.224,90.9744 117.5,81.5 Z"/></g>
<g><path style="opacity:0.936" fill="#ccc2f4" d="M 19.5,115.5 C 28.2069,115.037 31.7069,119.037 30,127.5C 25.4865,133.747 20.4865,134.08 15,128.5C 12.8187,122.877 14.3187,118.544 19.5,115.5 Z"/></g>
<g><path style="opacity:0.953" fill="#cbc3f4" d="M 218.5,195.5 C 227.604,194.438 231.438,198.438 230,207.5C 226.833,211.333 223.667,215.167 220.5,219C 211.059,222.544 206.559,219.377 207,209.5C 209.595,203.746 213.428,199.079 218.5,195.5 Z"/></g>
</svg>
